<svg width="371" height="370" viewBox="0 0 371 370" fill="none" xmlns="http://www.w3.org/2000/svg">
<mask id="mask0" mask-type="alpha" maskUnits="userSpaceOnUse" x="0" y="0" width="371" height="370">
<rect x="0.5" width="370" height="370" fill="white"/>
</mask>
<g mask="url(#mask0)">
<g opacity="0.400995">
<path d="M96.4963 206.743V251.032" stroke="#B2B2B2" stroke-width="2" stroke-linecap="round" stroke-linejoin="round"/>
<path d="M170.17 257.845L112.254 199.929" stroke="#B2B2B2" stroke-width="2" stroke-linecap="round" stroke-linejoin="round"/>
<path d="M252.785 273.602H208.496" stroke="#B2B2B2" stroke-width="2" stroke-linecap="round" stroke-linejoin="round"/>
<path d="M201.684 111.351L259.6 169.267" stroke="#B2B2B2" stroke-width="2" stroke-linecap="round" stroke-linejoin="round"/>
<path d="M119.066 95.5945H163.355" stroke="#B2B2B2" stroke-width="2" stroke-linecap="round" stroke-linejoin="round"/>
<path d="M274.504 206.743V251.032" stroke="#B2B2B2" stroke-width="2" stroke-linecap="round" stroke-linejoin="round"/>
<path fill-rule="evenodd" clip-rule="evenodd" d="M118.585 95.3383C118.585 107.662 108.589 117.653 96.2552 117.653C83.9238 117.653 73.9258 107.662 73.9258 95.3383C73.9258 83.0149 83.9238 73.0234 96.2552 73.0234C108.589 73.0234 118.585 83.0149 118.585 95.3383Z" stroke="#1A1A1A" stroke-width="2" stroke-linecap="round" stroke-linejoin="round"/>
<path fill-rule="evenodd" clip-rule="evenodd" d="M207.901 95.3383C207.901 107.662 197.906 117.653 185.572 117.653C173.24 117.653 163.242 107.662 163.242 95.3383C163.242 83.0149 173.24 73.0234 185.572 73.0234C197.906 73.0234 207.901 83.0149 207.901 95.3383Z" stroke="#1A1A1A" stroke-width="2" stroke-linecap="round" stroke-linejoin="round"/>
<path fill-rule="evenodd" clip-rule="evenodd" d="M297.217 95.3383C297.217 107.662 287.222 117.653 274.888 117.653C262.557 117.653 252.559 107.662 252.559 95.3383C252.559 83.0149 262.557 73.0234 274.888 73.0234C287.222 73.0234 297.217 83.0149 297.217 95.3383Z" stroke="#1A1A1A" stroke-width="2" stroke-linecap="round" stroke-linejoin="round"/>
<path fill-rule="evenodd" clip-rule="evenodd" d="M118.585 184.598C118.585 196.921 108.589 206.913 96.2552 206.913C83.9238 206.913 73.9258 196.921 73.9258 184.598C73.9258 172.275 83.9238 162.283 96.2552 162.283C108.589 162.283 118.585 172.275 118.585 184.598Z" stroke="#1A1A1A" stroke-width="2" stroke-linecap="round" stroke-linejoin="round"/>
<path fill-rule="evenodd" clip-rule="evenodd" d="M207.901 184.598C207.901 196.921 197.906 206.913 185.572 206.913C173.24 206.913 163.242 196.921 163.242 184.598C163.242 172.275 173.24 162.283 185.572 162.283C197.906 162.283 207.901 172.275 207.901 184.598Z" stroke="#1A1A1A" stroke-width="2" stroke-linecap="round" stroke-linejoin="round"/>
<path fill-rule="evenodd" clip-rule="evenodd" d="M297.217 184.598C297.217 196.921 287.222 206.913 274.888 206.913C262.557 206.913 252.559 196.921 252.559 184.598C252.559 172.275 262.557 162.283 274.888 162.283C287.222 162.283 297.217 172.275 297.217 184.598Z" stroke="#1A1A1A" stroke-width="2" stroke-linecap="round" stroke-linejoin="round"/>
<path fill-rule="evenodd" clip-rule="evenodd" d="M118.585 273.857C118.585 286.181 108.589 296.172 96.2552 296.172C83.9238 296.172 73.9258 286.181 73.9258 273.857C73.9258 261.534 83.9238 251.542 96.2552 251.542C108.589 251.542 118.585 261.534 118.585 273.857Z" stroke="#1A1A1A" stroke-width="2" stroke-linecap="round" stroke-linejoin="round"/>
<path fill-rule="evenodd" clip-rule="evenodd" d="M207.901 273.857C207.901 286.181 197.906 296.172 185.572 296.172C173.24 296.172 163.242 286.181 163.242 273.857C163.242 261.534 173.24 251.542 185.572 251.542C197.906 251.542 207.901 261.534 207.901 273.857Z" stroke="#1A1A1A" stroke-width="2" stroke-linecap="round" stroke-linejoin="round"/>
<path fill-rule="evenodd" clip-rule="evenodd" d="M297.217 273.857C297.217 286.181 287.222 296.172 274.888 296.172C262.557 296.172 252.559 286.181 252.559 273.857C252.559 261.534 262.557 251.542 274.888 251.542C287.222 251.542 297.217 261.534 297.217 273.857Z" stroke="#1A1A1A" stroke-width="2" stroke-linecap="round" stroke-linejoin="round"/>
</g>
</g>
</svg>
