<svg width="25" height="26" viewBox="0 0 25 26" fill="none" xmlns="http://www.w3.org/2000/svg">
<path fill-rule="evenodd" clip-rule="evenodd" d="M23.6184 0.449219H1.38158C0.618554 0.449219 0 1.06777 0 1.8308V24.0676C0 24.8307 0.618554 25.4492 1.38158 25.4492H13.3553V15.8001H10.0877V11.9975H13.3377V9.22115C13.3377 5.98869 15.307 4.22992 18.1886 4.22992C19.1675 4.23283 20.1455 4.28847 21.1184 4.39659V7.76939H19.1272C17.5614 7.76939 17.2588 8.51062 17.2588 9.60273V12.015H21.0088L20.5219 15.8001H17.2588V25.4492H23.6184C24.3814 25.4492 25 24.8307 25 24.0676V1.8308C25 1.06777 24.3814 0.449219 23.6184 0.449219Z" fill="#7F7F7F"/>
</svg>
