<svg width="25" height="26" fill="none" xmlns="http://www.w3.org/2000/svg"><path fill-rule="evenodd" clip-rule="evenodd" d="M21.303 21.752h-3.707V15.95c0-1.383-.024-3.163-1.927-3.163-1.93 0-2.224 1.507-2.224 3.064v5.901H9.742V9.822h3.554v1.63h.051c.495-.938 1.704-1.926 3.508-1.926 3.755 0 4.448 2.47 4.448 5.683v6.543zM5.561 8.192a2.15 2.15 0 110-4.301 2.15 2.15 0 010 4.3zm-1.857 13.56h3.712V9.822H3.704v11.93zM23.15.449H1.844C.826.45 0 1.256 0 2.252v21.393c0 .996.826 1.804 1.844 1.804H23.15c1.02 0 1.85-.808 1.85-1.804V2.252c0-.996-.83-1.803-1.85-1.803z" fill="#7F7F7F"/></svg>