<svg width="391" height="332" fill="none" xmlns="http://www.w3.org/2000/svg"><path d="M104.305 256.238a131.896 131.896 0 0019.417 16.007 131.056 131.056 0 0022.288 12.085 130.62 130.62 0 0012.055 4.407M81.71 101.072a130.13 130.13 0 00-13.17 36.063 130.902 130.902 0 00-1.988 13.014 132.604 132.604 0 00-.677 13.402c0 4.526.23 8.996.677 13.403a130.13 130.13 0 0015.159 49.077 130.736 130.736 0 006.572 10.808M317.978 112.53a130.597 130.597 0 00-12.097-22.265 131.742 131.742 0 00-25.339-27.86c-3.24-2.67-6.61-5.19-10.1-7.545a131.099 131.099 0 00-22.288-12.085 130.259 130.259 0 00-24.629-7.639 131.26 131.26 0 00-13.027-1.986 133 133 0 00-13.416-.676c-4.528 0-9.005.229-13.415.676a130.699 130.699 0 00-25.601 5.216 130.816 130.816 0 00-34.343 16.494M327.61 176.954c.448-4.406.677-8.877.677-13.402 0-4.524-.229-8.996-.677-13.403M259.623 278.81a131.638 131.638 0 0030.236-22.571 131.739 131.739 0 0022.594-30.208 130.44 130.44 0 005.525-11.458" stroke="#B2B2B2" stroke-width="2" stroke-linecap="round" stroke-linejoin="round"/><path clip-rule="evenodd" d="M292.504 163.552c0-52.649-42.722-95.33-95.422-95.33-52.701 0-95.424 42.681-95.424 95.33 0 52.648 42.723 95.33 95.424 95.33 52.7 0 95.422-42.682 95.422-95.33z" stroke="#231F20" stroke-width="2" stroke-linecap="round" stroke-linejoin="round"/><path clip-rule="evenodd" d="M286.246 163.552c0-49.197-39.92-89.078-89.165-89.078-49.244 0-89.165 39.881-89.165 89.078 0 49.196 39.921 89.077 89.165 89.077 49.245 0 89.165-39.881 89.165-89.077z" stroke="#B2B2B2" stroke-width="2" stroke-linecap="round" stroke-linejoin="round"/><path d="M136.882 39.74a2.385 2.385 0 01-2.386-2.384V3.99a2.385 2.385 0 012.386-2.383h53.042a2.384 2.384 0 012.386 2.383v21.617" stroke="#B2B2B2" stroke-width="2" stroke-linecap="round" stroke-linejoin="round"/><path clip-rule="evenodd" d="M245.122 191.868h-96.081v-58.924a4.43 4.43 0 014.432-4.428h87.216a4.43 4.43 0 014.433 4.428v58.924zM254.73 191.868H139.434v2.291a4.429 4.429 0 004.432 4.428h106.431a4.43 4.43 0 004.433-4.428v-2.291z" stroke="#231F20" stroke-width="2" stroke-linecap="round" stroke-linejoin="round"/><path d="M197.081 149.247v19.493" stroke="#000" stroke-width="2" stroke-linecap="round" stroke-linejoin="round"/><path fill-rule="evenodd" clip-rule="evenodd" d="M198.942 175.998a1.861 1.861 0 01-3.721 0 1.86 1.86 0 013.721 0z" fill="#000"/><mask id="a" maskUnits="userSpaceOnUse" x="0" y="0" width="391" height="332"><path fill-rule="evenodd" clip-rule="evenodd" d="M.975 331.487h389.248V.5H.975v330.987z" fill="#fff"/></mask><g mask="url(#a)" stroke-width="2" stroke-linecap="round" stroke-linejoin="round"><path clip-rule="evenodd" d="M192.312 282.714h9.542v-23.833h-9.542v23.833z" stroke="#231F20"/><path d="M183.961 330.38v-47.665h26.242v29.791" stroke="#231F20"/><path clip-rule="evenodd" d="M386.898 185.424h-14.653a2.216 2.216 0 01-2.216-2.215v-28.937c0-1.223.993-2.214 2.216-2.214h14.653c1.223 0 2.216.991 2.216 2.214v28.937a2.216 2.216 0 01-2.216 2.215zM49.937 253.206c0-7.898-6.408-14.3-14.313-14.3s-14.314 6.402-14.314 14.3c0 7.897 6.409 14.299 14.314 14.299s14.313-6.402 14.313-14.299zM333.76 30.156c0-7.897-6.408-14.3-14.313-14.3-7.906 0-14.314 6.403-14.314 14.3 0 7.898 6.408 14.3 14.314 14.3 7.905 0 14.313-6.402 14.313-14.3zM20.276 136.165l14.054-24.317c.852-1.476-.214-3.321-1.92-3.321H4.303c-1.707 0-2.773 1.845-1.92 3.321l14.053 24.317c.854 1.476 2.985 1.476 3.839 0z" stroke="#B2B2B2"/><path d="M282.318 273.741l4.235 7.328a2.388 2.388 0 002.067 1.191h15.137c.852 0 1.64-.454 2.066-1.191l7.569-13.096a2.381 2.381 0 000-2.383l-7.569-13.098a2.387 2.387 0 00-2.066-1.192M31.333 277.85v28.138M39.915 277.85v13.081M344.443 32.473h7.328M358.525 32.473h25.277M350.406 23.9h15.509" stroke="#B2B2B2"/></g></svg>