<svg width="470" height="360" fill="none" xmlns="http://www.w3.org/2000/svg"><mask id="a" maskUnits="userSpaceOnUse" x="0" y="0" width="470" height="360"><path fill="#fff" d="M0 0h470v360H0z"/></mask><g mask="url(#a)"><path d="M90.867 287.43V72.57M338.533 319.881h-215.17M371.031 247.196v40.234M371.031 72.57v40.674M123.365 40.12h215.17" stroke="#B2B2B2" stroke-width="2" stroke-linecap="round" stroke-linejoin="round"/><path d="M365.429 235.952v73.858a4.479 4.479 0 01-4.483 4.476H100.953a4.48 4.48 0 01-4.482-4.476V50.191a4.48 4.48 0 014.482-4.476h259.993a4.479 4.479 0 014.483 4.476v73.857" stroke="#1A1A1A" stroke-width="2" stroke-linecap="round" stroke-linejoin="round"/><path clip-rule="evenodd" d="M410.254 180c0 24.721-20.068 44.762-44.826 44.762-24.757 0-44.826-20.041-44.826-44.762 0-24.722 20.069-44.762 44.826-44.762 24.758 0 44.826 20.04 44.826 44.762z" stroke="#1A1A1A" stroke-width="2" stroke-linecap="round" stroke-linejoin="round"/><path d="M365.429 165.54v19.704" stroke="#000" stroke-width="2" stroke-linecap="round" stroke-linejoin="round"/><path fill-rule="evenodd" clip-rule="evenodd" d="M367.31 192.581a1.881 1.881 0 01-3.763 0 1.88 1.88 0 013.763 0z" fill="#000"/><path d="M166.512 94.673h113.192M166.512 80.684h135.603" stroke="#B2B2B2" stroke-width="2" stroke-linecap="round" stroke-linejoin="round"/><path clip-rule="evenodd" d="M152.503 87.679c0 7.725-6.271 13.988-14.008 13.988-7.736 0-14.009-6.263-14.009-13.988s6.273-13.988 14.009-13.988c7.737 0 14.008 6.263 14.008 13.988z" stroke="#B2B2B2" stroke-width="2" stroke-linecap="round" stroke-linejoin="round"/><path d="M166.512 150.625h135.603M166.512 136.637h113.192" stroke="#B2B2B2" stroke-width="2" stroke-linecap="round" stroke-linejoin="round"/><path clip-rule="evenodd" d="M152.503 143.631c0 7.725-6.271 13.988-14.008 13.988-7.736 0-14.009-6.263-14.009-13.988s6.273-13.988 14.009-13.988c7.737 0 14.008 6.263 14.008 13.988z" stroke="#B2B2B2" stroke-width="2" stroke-linecap="round" stroke-linejoin="round"/><path d="M166.512 206.578h135.603M166.512 192.589h113.192" stroke="#B2B2B2" stroke-width="2" stroke-linecap="round" stroke-linejoin="round"/><path clip-rule="evenodd" d="M152.503 199.584c0 7.725-6.271 13.988-14.008 13.988-7.736 0-14.009-6.263-14.009-13.988s6.273-13.988 14.009-13.988c7.737 0 14.008 6.263 14.008 13.988z" stroke="#B2B2B2" stroke-width="2" stroke-linecap="round" stroke-linejoin="round"/><path d="M138.496 267.562v19.868M149.701 256.373v31.057M160.908 245.183v42.247M172.113 250.778v36.652M183.32 261.967v25.463M194.525 250.778v36.652M205.73 261.967v25.463M216.937 273.158v14.272M293.152 250.778h30.461M258.961 250.778h20.742M314.441 266.307h9.171M258.961 266.307h42.033M283.938 281.836h39.674M258.961 281.836h11.527" stroke="#B2B2B2" stroke-width="2" stroke-linecap="round" stroke-linejoin="round"/><path clip-rule="evenodd" d="M280.574 285.193h-6.724a3.36 3.36 0 01-3.362-3.357 3.36 3.36 0 013.362-3.357h6.724a3.359 3.359 0 013.362 3.357 3.36 3.36 0 01-3.362 3.357zM311.08 269.664h-6.724a3.36 3.36 0 01-3.362-3.357 3.36 3.36 0 013.362-3.357h6.724a3.36 3.36 0 013.362 3.357 3.36 3.36 0 01-3.362 3.357zM289.789 254.135h-6.724a3.36 3.36 0 01-3.362-3.357 3.36 3.36 0 013.362-3.357h6.724a3.36 3.36 0 013.362 3.357 3.36 3.36 0 01-3.362 3.357z" stroke="#B2B2B2" stroke-width="2" stroke-linecap="round" stroke-linejoin="round"/></g></svg>