<svg width="470" height="360" fill="none" xmlns="http://www.w3.org/2000/svg"><mask id="a" maskUnits="userSpaceOnUse" x="0" y="0" width="470" height="360"><path fill="#fff" d="M0 0h470v360H0z"/></mask><g mask="url(#a)" stroke-width="2" stroke-linecap="round" stroke-linejoin="round"><path d="M276.954 54.145h50.34c1.153 0 2.097.944 2.097 2.097v247.504a2.097 2.097 0 01-2.097 2.098H142.715a2.091 2.091 0 01-2.098-2.098V56.243c0-1.154.934-2.098 2.098-2.098h50.339" stroke="#000"/><path d="M109.15 305.848V48.906c0-14.48 11.739-26.218 26.219-26.218H235M360.849 54.15v256.942c0 14.481-11.737 26.219-26.218 26.219H235" stroke="#B2B2B2"/><path d="M276.955 64.632h41.95v199.262l-15.732 15.731-15.731 15.731H151.105V64.632h41.95" stroke="#B2B2B2"/><path clip-rule="evenodd" d="M262.267 75.125h-54.535a4.194 4.194 0 01-4.195-4.195V47.858a4.195 4.195 0 014.195-4.195h54.535a4.194 4.194 0 014.195 4.195V70.93a4.194 4.194 0 01-4.195 4.195z" stroke="#000"/><path d="M287.436 295.361v-31.462h31.462" stroke="#B2B2B2"/><path clip-rule="evenodd" d="M276.948 143.293c0-23.169-18.781-41.95-41.949-41.95s-41.95 18.781-41.95 41.95c0 23.167 18.782 41.949 41.95 41.949 23.168 0 41.949-18.782 41.949-41.949z" stroke="#231F20"/><path d="M254.639 134.871l-23.567 23.567-15.711-15.712" stroke="#231F20"/><path d="M193.049 206.216h83.899M193.049 227.189h83.899M193.049 248.163h83.899M207.732 6.957L235 22.687M235 337.311l27.267 15.731" stroke="#B2B2B2"/></g></svg>