<svg width="470" height="360" fill="none" xmlns="http://www.w3.org/2000/svg"><mask id="a" maskUnits="userSpaceOnUse" x="0" y="0" width="470" height="360"><path fill="#fff" d="M0 0h470v360H0z"/></mask><g mask="url(#a)" stroke-width="2" stroke-linecap="round" stroke-linejoin="round"><path d="M219.42 30C143.9 37.79 85 101.62 85 179.2c0 82.84 67.16 150 150 150 77.59 0 141.41-58.9 149.2-134.42" stroke="#B2B2B2"/><path d="M250.58 30c70.41 7.26 126.36 63.22 133.62 133.62" stroke="#231F20"/><path d="M122.87 222.02c-5.09-13.3-7.87-27.73-7.87-42.82 0-30.13 11.099-57.66 29.44-78.73M135.811 246.75c21.601 31.66 57.971 52.45 99.19 52.45 61 0 111.361-45.51 119-104.42M165.049 81.68a119.368 119.368 0 0154.37-21.48" stroke="#B2B2B2"/><path d="M345.061 131.299a119.12 119.12 0 018.94 32.32M250.58 60.2c29.56 3.83 55.74 18.42 74.49 39.7M250.58 90.55c37.229 6.49 66.59 35.85 73.07 73.069" stroke="#231F20"/><path d="M287.789 252.08c18.55-13.439 31.76-33.8 35.86-57.3M219.42 90.55C177.14 97.92 145 134.81 145 179.198c0 49.701 40.3 90 90 90 9.731 0 19.11-1.549 27.89-4.42" stroke="#B2B2B2"/><path d="M250.58 121.25c20.62 5.521 36.85 21.75 42.38 42.37" stroke="#231F20"/><path d="M219.42 121.25c-25.58 6.851-44.42 30.2-44.42 57.95 0 33.14 26.87 60 60 60 27.75 0 51.1-18.84 57.96-44.42" stroke="#B2B2B2"/><path clip-rule="evenodd" d="M250.002 179.199c0-8.284-6.716-15-15-15-8.284 0-15 6.716-15 15 0 8.284 6.716 15 15 15 8.284 0 15-6.716 15-15z" stroke="#231F20"/><path clip-rule="evenodd" d="M392.413 179.199c0-86.706-70.477-157-157.409-157-86.933 0-157.41 70.294-157.41 157s70.477 157 157.41 157c86.932 0 157.409-70.294 157.409-157z" stroke="#231F20"/><path d="M250.002 179.199h134.197" stroke="#231F20"/><path clip-rule="evenodd" d="M285.734 259.2c0 5.522-4.477 10-10 10-5.522 0-10-4.478-10-10s4.478-10 10-10c5.523 0 10 4.478 10 10z" stroke="#B2B2B2"/><path clip-rule="evenodd" d="M280.734 259.2a5 5 0 11-10 0 5 5 0 1110 0zM148.938 98.856c-4.783-2.762-6.422-8.877-3.661-13.66 2.762-4.783 8.878-6.422 13.661-3.66 4.782 2.761 6.421 8.877 3.66 13.66-2.762 4.783-8.878 6.422-13.66 3.66z" stroke="#B2B2B2"/><path clip-rule="evenodd" d="M151.437 94.526a4.999 4.999 0 01-1.83-6.83 5 5 0 111.83 6.83zM123.471 243.503c-4.783-2.762-6.422-8.878-3.66-13.66 2.761-4.783 8.877-6.422 13.66-3.66 4.783 2.76 6.422 8.877 3.66 13.66-2.762 4.782-8.877 6.421-13.66 3.66z" stroke="#B2B2B2"/><path clip-rule="evenodd" d="M125.97 239.173a4.999 4.999 0 01-1.83-6.83 4.999 4.999 0 016.83-1.83 4.999 4.999 0 011.83 6.83 4.999 4.999 0 01-6.83 1.83z" stroke="#B2B2B2"/><path clip-rule="evenodd" d="M342.626 101.67h-14.024c-.358 0-.688.191-.867.5l-7.011 12.146a.998.998 0 000 1l7.011 12.144a1 1 0 00.867.5h14.024c.356 0 .687-.19.865-.5l7.013-12.144c.178-.31.178-.691 0-1l-7.013-12.146a1 1 0 00-.865-.5z" stroke="#1A1A1A"/></g></svg>