<svg width="470" height="360" fill="none" xmlns="http://www.w3.org/2000/svg"><mask id="a" maskUnits="userSpaceOnUse" x="0" y="0" width="470" height="360"><path fill="#fff" d="M0 0h470v360H0z"/></mask><g mask="url(#a)" stroke-width="2" stroke-linecap="round" stroke-linejoin="round"><path d="M148.219 92.876l50.485 50.491M99.72 44.372l15.262 15.265" stroke="#B2B2B2"/><path clip-rule="evenodd" d="M245.057 172.538c0 5.729-4.63 10.372-10.358 10.372-5.729 0-10.371-4.643-10.371-10.372s4.642-10.359 10.371-10.359c5.728 0 10.358 4.63 10.358 10.359z" stroke="#231F20"/><path clip-rule="evenodd" d="M234.699 145.426c-18.747 0-33.937 15.192-33.937 33.941 0 10.712 4.955 20.27 12.705 26.473 1.318-7.384 6.381-13.439 13.154-16.168l8.092 9.653 8.063-9.68c6.774 2.742 11.837 8.811 13.168 16.183 7.738-6.205 12.692-15.749 12.692-26.461 0-18.749-15.191-33.941-33.937-33.941z" stroke="#231F20"/><path clip-rule="evenodd" d="M274.293 179.367c0 21.87-17.727 39.599-39.594 39.599s-39.594-17.729-39.594-39.599c0-21.87 17.727-39.598 39.594-39.598s39.594 17.728 39.594 39.598z" stroke="#B2B2B2"/><path d="M234.698 70.04v58.415M112.825 225.491v24.852M195.105 179.367h-77.754a4.526 4.526 0 00-4.525 4.526v7.304M345.259 179.367h-70.966M345.26 68.792l-22.028 22.03M299.237 114.822l-28.542 28.545M369.677 44.372l-15.263 15.265M356.571 227.718v-43.825a4.525 4.525 0 00-4.525-4.526h-77.753" stroke="#B2B2B2"/><path clip-rule="evenodd" d="M142.238 318.226H83.414a4.525 4.525 0 01-4.525-4.526v-58.832a4.525 4.525 0 014.525-4.525h58.824a4.525 4.525 0 014.525 4.525V313.7c0 2.5-2.026 4.526-4.525 4.526z" stroke="#B2B2B2"/><path d="M344.586 244.582l-7.773-13.469c-.871-1.505.215-3.394 1.957-3.394h35.6c1.742 0 2.828 1.889 1.958 3.394l-7.761 13.469" stroke="#1A1A1A"/><path clip-rule="evenodd" d="M328.291 102.91c0-9.373-7.598-16.971-16.969-16.971-9.371 0-16.968 7.598-16.968 16.971 0 9.373 7.597 16.97 16.968 16.97 9.371 0 16.969-7.597 16.969-16.97zM144.903 63.197h-18.492a1.13 1.13 0 00-.979.566l-9.246 16.014c-.201.351-.201.782 0 1.132l9.246 16.016c.202.35.576.565.979.565h18.492c.403 0 .777-.216.978-.565l9.246-16.016c.202-.35.202-.781 0-1.132l-9.246-16.014a1.127 1.127 0 00-.978-.566zM122.072 191.197h-18.491c-.404 0-.777.216-.98.566l-9.244 16.016a1.13 1.13 0 000 1.131l9.244 16.016c.203.35.576.566.98.566h18.491c.404 0 .778-.216.98-.566l9.245-16.016c.202-.35.202-.782 0-1.131l-9.245-16.016a1.132 1.132 0 00-.98-.566z" stroke="#1A1A1A"/><path d="M127.602 276.683l-17.053 17.056-11.37-11.372" stroke="#231F20"/><path clip-rule="evenodd" d="M385.982 318.226h-58.824a4.525 4.525 0 01-4.525-4.526v-58.832a4.525 4.525 0 014.525-4.525h58.824a4.524 4.524 0 014.525 4.525V313.7c0 2.5-2.024 4.526-4.525 4.526z" stroke="#B2B2B2"/><path d="M234.693 34.676V21.131M234.698 252.347v-33.381M234.693 297.602v31.937" stroke="#B2B2B2"/><path d="M346.389 274.102l20.362 20.365M366.751 274.102l-20.362 20.365" stroke="#231F20"/><path clip-rule="evenodd" d="M236.657 68.909l17.802-30.838c.871-1.51-.217-3.395-1.959-3.395h-35.605c-1.742 0-2.83 1.885-1.959 3.395l17.802 30.838c.871 1.508 3.048 1.508 3.919 0zM251.66 269.318c0-9.372-7.597-16.971-16.969-16.971-9.371 0-16.968 7.599-16.968 16.971s7.597 16.971 16.968 16.971c9.372 0 16.969-7.599 16.969-16.971z" stroke="#1A1A1A"/></g></svg>