<svg width="470" height="360" fill="none" xmlns="http://www.w3.org/2000/svg"><mask id="a" maskUnits="userSpaceOnUse" x="0" y="0" width="470" height="360"><path fill="#fff" d="M0 0h470v360H0z"/></mask><g mask="url(#a)" stroke-width="2" stroke-linecap="round" stroke-linejoin="round"><path clip-rule="evenodd" d="M111.25 44h-22.5L77.5 63.485l11.25 19.486h22.5l11.25-19.486L111.25 44zM156.25 102.457h-22.5l-11.25 19.485 11.25 19.486h22.5l11.25-19.486-11.25-19.485zM246.25 102.457h-22.5l-11.25 19.485 11.25 19.486h22.5l11.25-19.486-11.25-19.485zM336.25 102.457h-22.5l-11.25 19.485 11.25 19.486h22.5l11.25-19.486-11.25-19.485zM201.25 44h-22.5L167.5 63.485l11.25 19.486h22.5l11.25-19.486L201.25 44zM291.25 44h-22.5L257.5 63.485l11.25 19.486h22.5l11.25-19.486L291.25 44zM381.25 44h-22.5L347.5 63.485l11.25 19.486h22.5l11.25-19.486L381.25 44zM111.25 160.913h-22.5L77.5 180.399l11.25 19.485h22.5l11.25-19.485-11.25-19.486zM156.25 219.37h-22.5l-11.25 19.486 11.25 19.486h22.5l11.25-19.486-11.25-19.486zM246.25 219.37h-22.5l-11.25 19.486 11.25 19.486h22.5l11.25-19.486-11.25-19.486zM336.25 219.37h-22.5l-11.25 19.486 11.25 19.486h22.5l11.25-19.486-11.25-19.486zM291.25 160.913h-22.5l-11.25 19.486 11.25 19.485h22.5l11.25-19.485-11.25-19.486zM381.25 160.913h-22.5l-11.25 19.486 11.25 19.485h22.5l11.25-19.485-11.25-19.486zM111.25 277.827h-22.5L77.5 297.312l11.25 19.486h22.5l11.25-19.486-11.25-19.485zM201.25 277.827h-22.5l-11.25 19.485 11.25 19.486h22.5l11.25-19.486-11.25-19.485zM291.25 277.827h-22.5l-11.25 19.485 11.25 19.486h22.5l11.25-19.486-11.25-19.485zM381.25 277.827h-22.5l-11.25 19.485 11.25 19.486h22.5l11.25-19.486-11.25-19.485zM189.999 195.134l13.719-23.76h-27.437l13.718 23.76z" stroke="#1A1A1A"/><path d="M151.523 172.913a39.064 39.064 0 012.152-7.263 38.906 38.906 0 013.587-6.817 39.502 39.502 0 015.023-6.149 39.384 39.384 0 016.148-5.022 38.955 38.955 0 0114.081-5.74M182.514 218.877a38.982 38.982 0 01-14.081-5.74 39.391 39.391 0 01-6.148-5.023 39.391 39.391 0 01-5.023-6.148 38.978 38.978 0 01-5.739-14.08M228.477 187.885a38.941 38.941 0 01-5.739 14.08 39.502 39.502 0 01-5.023 6.149 39.391 39.391 0 01-6.149 5.022 38.817 38.817 0 01-6.818 3.588 39.085 39.085 0 01-7.262 2.152M197.486 141.922a38.911 38.911 0 0114.08 5.74 39.391 39.391 0 016.149 5.022 39.445 39.445 0 015.023 6.149 38.956 38.956 0 015.739 14.08M213.518 180.399h32.209M134.273 180.399h32.209M190 124.673v32.209M190 203.916v32.21" stroke="#B2B2B2"/></g></svg>