<svg width="371" height="370" viewBox="0 0 371 370" fill="none" xmlns="http://www.w3.org/2000/svg">
<mask id="mask0" mask-type="alpha" maskUnits="userSpaceOnUse" x="0" y="0" width="371" height="370">
<rect x="0.5" width="370" height="370" fill="white"/>
</mask>
<g mask="url(#mask0)">
<g opacity="0.4">
<path fill-rule="evenodd" clip-rule="evenodd" d="M185.265 130.291C153.202 130.291 127.227 156.13 127.227 188.02C127.227 206.239 135.7 222.495 148.953 233.048C151.208 220.487 159.868 210.188 171.449 205.546L185.289 221.964L199.079 205.5C210.663 210.165 219.32 220.487 221.598 233.025C234.831 222.472 243.304 206.239 243.304 188.02C243.304 156.13 217.326 130.291 185.265 130.291Z" stroke="#1A1A1A" stroke-width="2" stroke-linecap="round" stroke-linejoin="round"/>
<path fill-rule="evenodd" clip-rule="evenodd" d="M204.293 174.058C204.293 163.548 195.773 155.029 185.264 155.029C174.751 155.029 166.234 163.548 166.234 174.058C166.234 184.568 174.751 193.088 185.264 193.088C195.773 193.088 204.293 184.568 204.293 174.058Z" stroke="#1A1A1A" stroke-width="2" stroke-linecap="round" stroke-linejoin="round"/>
<path d="M92.9727 259.689L168.138 302.505" stroke="#B2B2B2" stroke-width="2" stroke-linecap="round" stroke-linejoin="round"/>
<path d="M74.4194 141.709V228.292" stroke="#B2B2B2" stroke-width="2" stroke-linecap="round" stroke-linejoin="round"/>
<path d="M296.107 141.709V228.292" stroke="#B2B2B2" stroke-width="2" stroke-linecap="round" stroke-linejoin="round"/>
<path d="M168.138 68.4468L92.9727 111.262" stroke="#B2B2B2" stroke-width="2" stroke-linecap="round" stroke-linejoin="round"/>
<path d="M277.556 111.262L202.391 68.4468" stroke="#B2B2B2" stroke-width="2" stroke-linecap="round" stroke-linejoin="round"/>
<path d="M202.391 302.505L277.556 259.689" stroke="#B2B2B2" stroke-width="2" stroke-linecap="round" stroke-linejoin="round"/>
<path fill-rule="evenodd" clip-rule="evenodd" d="M206.194 57.9792C206.194 46.9444 197.034 38 185.738 38C174.438 38 165.281 46.9444 165.281 57.9792C165.281 69.0139 174.438 77.9612 185.738 77.9612C197.034 77.9612 206.194 69.0139 206.194 57.9792Z" stroke="#B2B2B2" stroke-width="2" stroke-linecap="round" stroke-linejoin="round"/>
<path fill-rule="evenodd" clip-rule="evenodd" d="M85.5981 104.427C75.8145 98.9109 63.3054 102.185 57.6583 111.739C52.0083 121.295 55.3631 133.513 65.1468 139.029C74.9245 144.545 87.4366 141.271 93.0837 131.718C98.7308 122.161 95.3788 109.943 85.5981 104.427Z" stroke="#B2B2B2" stroke-width="2" stroke-linecap="round" stroke-linejoin="round"/>
<path fill-rule="evenodd" clip-rule="evenodd" d="M65.1455 230.97C55.3618 236.486 52.0099 248.705 57.657 258.258C63.3041 267.815 75.8161 271.089 85.5968 265.573C95.3775 260.054 98.7324 247.838 93.0824 238.282C87.4353 228.728 74.9262 225.454 65.1455 230.97Z" stroke="#B2B2B2" stroke-width="2" stroke-linecap="round" stroke-linejoin="round"/>
<path fill-rule="evenodd" clip-rule="evenodd" d="M165.281 312.02C165.281 323.055 174.443 332 185.738 332C197.038 332 206.194 323.055 206.194 312.02C206.194 300.985 197.038 292.039 185.738 292.039C174.443 292.039 165.281 300.985 165.281 312.02Z" stroke="#B2B2B2" stroke-width="2" stroke-linecap="round" stroke-linejoin="round"/>
<path fill-rule="evenodd" clip-rule="evenodd" d="M284.929 265.573C294.713 271.089 307.219 267.815 312.869 258.258C318.516 248.705 315.164 236.486 305.38 230.97C295.6 225.454 283.091 228.728 277.441 238.282C271.797 247.838 275.146 260.054 284.929 265.573Z" stroke="#B2B2B2" stroke-width="2" stroke-linecap="round" stroke-linejoin="round"/>
<path fill-rule="evenodd" clip-rule="evenodd" d="M305.382 139.029C315.165 133.513 318.514 121.295 312.87 111.739C307.22 102.185 294.711 98.9109 284.931 104.427C275.147 109.943 271.795 122.161 277.442 131.718C283.092 141.271 295.598 144.545 305.382 139.029Z" stroke="#B2B2B2" stroke-width="2" stroke-linecap="round" stroke-linejoin="round"/>
</g>
</g>
</svg>
