<svg width="169" height="59" fill="none" xmlns="http://www.w3.org/2000/svg"><mask id="a" maskUnits="userSpaceOnUse" x="23" y="49" width="10" height="10"><path fill-rule="evenodd" clip-rule="evenodd" d="M23.875 49.533h8.485v9.085h-8.485v-9.085z" fill="#fff"/></mask><g mask="url(#a)"><path fill-rule="evenodd" clip-rule="evenodd" d="M32.36 51.498l-1.526.92c-.508-.757-1.302-1.208-2.3-1.208-1.608 0-2.809 1.163-2.809 2.865 0 1.758 1.24 2.866 2.808 2.866.992 0 1.787-.432 2.32-1.2l1.45 1.025c-.801 1.138-2.123 1.853-3.756 1.853-2.746 0-4.672-1.91-4.672-4.544 0-2.634 1.926-4.542 4.672-4.542 1.646 0 3.082.745 3.813 1.965z" fill="#7F7F7F"/></g><path fill-rule="evenodd" clip-rule="evenodd" d="M38.505 58.618h-1.827v-3.782l-3.53-5.79h2.148l2.305 4.062 2.305-4.062h2.082l-3.483 5.798v3.774zM45.832 56.936l1.831.007c.907 0 1.468-.246 1.468-1.163 0-.902-.561-1.141-1.468-1.141h-1.831v2.297zm0-3.972h1.673c.813 0 1.446-.198 1.446-1.128 0-.897-.644-1.107-1.452-1.107h-1.667v2.235zm4.821-1.265c0 .964-.51 1.743-1.188 2.031.75.294 1.364 1.114 1.364 2.146 0 1.832-1.117 2.742-3.083 2.742h-3.547v-9.572h3.347c1.908 0 3.107.827 3.107 2.653zM54.512 58.618v-9.572h6.58v1.75H56.28v2.12h4.59v1.751h-4.59v2.2h4.861v1.751h-6.63zM66.495 53.148h1.844c.916 0 1.383-.376 1.383-1.19 0-.8-.49-1.155-1.383-1.155h-1.844v2.345zm4.946-1.19c0 1.573-.957 2.639-2.569 2.824l2.582 3.836h-2.025l-2.443-3.808h-.491v3.808h-1.67v-9.572h3.544c2 0 3.072 1.08 3.072 2.913zM77.572 50.75c-.989 0-1.698.41-1.698 1.11 0 .674.767.893 1.83 1.07l.501.086c1.59.265 2.825.985 2.825 2.59 0 2.035-1.723 3.012-3.629 3.012-1.35 0-2.787-.409-3.737-1.209l.918-1.486c.647.529 1.68.998 2.825.998.989 0 1.742-.403 1.742-1.117 0-.64-.646-.872-1.881-1.083l-.564-.092C75.14 54.365 74 53.657 74 51.979c0-1.929 1.646-2.933 3.534-2.933 1.248 0 2.267.29 3.389.984l-.837 1.506c-.702-.45-1.545-.785-2.514-.785zM83.977 58.618v-9.572h6.579v1.75h-4.811v2.12h4.589v1.751h-4.59v2.2h4.862v1.751h-6.63z" fill="#7F7F7F"/><mask id="b" maskUnits="userSpaceOnUse" x="93" y="49" width="9" height="10"><path fill-rule="evenodd" clip-rule="evenodd" d="M93.176 49.533h8.356v9.085h-8.356v-9.085z" fill="#fff"/></mask><g mask="url(#b)"><path fill-rule="evenodd" clip-rule="evenodd" d="M101.532 51.498l-1.502.92c-.5-.757-1.283-1.208-2.266-1.208-1.584 0-2.766 1.163-2.766 2.865 0 1.758 1.22 2.866 2.766 2.866.977 0 1.76-.432 2.285-1.2l1.427 1.025c-.789 1.138-2.09 1.853-3.7 1.853-2.703 0-4.6-1.91-4.6-4.544 0-2.634 1.897-4.542 4.6-4.542 1.622 0 3.036.745 3.756 1.965z" fill="#7F7F7F"/></g><path fill-rule="evenodd" clip-rule="evenodd" d="M108.286 58.618c-2.175 0-3.682-1.324-3.682-3.923v-5.649h1.71v5.555c0 1.539.8 2.224 1.972 2.224 1.173 0 1.974-.685 1.974-2.224v-5.555h1.71v5.65c0 2.598-1.509 3.922-3.684 3.922zM117.323 53.148h1.844c.916 0 1.384-.376 1.384-1.19 0-.8-.491-1.155-1.384-1.155h-1.844v2.345zm4.947-1.19c0 1.573-.958 2.639-2.57 2.824l2.582 3.836h-2.025l-2.443-3.808h-.491v3.808h-1.671v-9.572h3.545c2.001 0 3.073 1.08 3.073 2.913z" fill="#7F7F7F"/><mask id="c" maskUnits="userSpaceOnUse" x="0" y="0" width="169" height="59"><path fill-rule="evenodd" clip-rule="evenodd" d="M0 58.618h168.69V.45H0v58.17z" fill="#fff"/></mask><g mask="url(#c)" fill-rule="evenodd" clip-rule="evenodd" fill="#7F7F7F"><path d="M125.229 58.618h1.473v-9.572h-1.473v9.572zM134.227 50.831v7.787h-1.791v-7.787h-2.788v-1.785h7.367v1.785h-2.788zM143.107 58.618h-1.826v-3.782l-3.529-5.79h2.147l2.305 4.062 2.305-4.062h2.083l-3.485 5.798v3.774zM18.16 15.417l-1.998-.325c-4.259-.67-7.321-1.494-7.321-4.032 0-2.643 2.837-4.185 6.785-4.185 3.464 0 6.519 1.01 9.13 2.428l4.273-5.14C24.545 1.548 20.469.45 15.479.45 7.926.45 1.338 4.233 1.338 11.503c0 6.328 4.56 8.992 10.818 9.987l2.253.347c4.94.795 7.531 1.667 7.531 4.087 0 2.685-3.019 4.206-6.968 4.206-4.245 0-8.095-1.515-10.692-3.313L0 31.977c3.802 3.009 9.545 4.552 14.944 4.552 7.63 0 14.521-3.687 14.521-11.352 0-6.052-4.942-8.764-11.304-9.76zM50.165 18.425l15.003-17.24h-8.946l-11.83 14.317h-3.371V1.186h-7.136v35.343h7.136v-14.54h3.293l12.73 14.54h9.253L50.165 18.425zM129.266 1.186v20.941c0 5.797-3.284 8.378-8.092 8.378-4.807 0-8.084-2.581-8.084-8.378V1.186h-7.014v21.293c0 9.798 6.185 14.786 15.098 14.786 8.919 0 15.104-4.988 15.104-14.786V1.186h-7.012zM139.961 1.186v6.586h10.868V36.53h6.992V7.772h10.869V1.186h-28.729z"/><path d="M82.875 29.527c-6.1 0-11.04-4.94-11.04-11.038 0-6.092 4.94-11.039 11.04-11.039 6.093 0 11.035 4.947 11.035 11.039 0 6.098-4.942 11.038-11.035 11.038zm0-29.078c-9.972 0-18.05 8.078-18.05 18.04s8.078 18.04 18.05 18.04c9.965 0 18.044-8.078 18.044-18.04S92.84.449 82.875.449z"/></g></svg>