<svg width="31" height="31" viewBox="0 0 31 31" fill="none" xmlns="http://www.w3.org/2000/svg">
<path d="M20.8982 1.92345C26.5044 4.01255 30.4982 9.41418 30.4982 15.7491C30.4982 23.8944 23.8944 30.4976 15.7491 30.4976C7.60327 30.4976 1 23.8944 1 15.7491C1 7.60327 7.60327 1 15.7491 1C17.56 1 19.2951 1.32618 20.8982 1.92345" stroke="#B2B2B2" stroke-linecap="round" stroke-linejoin="round"/>
<path d="M15.7493 13.2731V21.8836" stroke="#B2B2B2" stroke-linecap="round" stroke-linejoin="round"/>
<path d="M13.5977 21.8837H17.9029" stroke="#B2B2B2" stroke-linecap="round" stroke-linejoin="round"/>
<path d="M13.5977 13.273H15.75" stroke="#B2B2B2" stroke-linecap="round" stroke-linejoin="round"/>
<path fill-rule="evenodd" clip-rule="evenodd" d="M16.1777 10.0446C16.1777 10.2824 15.9846 10.4749 15.7468 10.4749C15.509 10.4749 15.3164 10.2824 15.3164 10.0446C15.3164 9.80674 15.509 9.6142 15.7468 9.6142C15.9846 9.6142 16.1777 9.80674 16.1777 10.0446Z" fill="#B2B2B2" stroke="#B2B2B2" stroke-linecap="round" stroke-linejoin="round"/>
</svg>
