<svg width="25" height="25" fill="none" xmlns="http://www.w3.org/2000/svg"><path fill-rule="evenodd" clip-rule="evenodd" d="M21.303 21.303h-3.707V15.5c0-1.384-.024-3.163-1.927-3.163-1.93 0-2.224 1.507-2.224 3.064v5.9H9.742V9.373h3.554v1.632h.051c.495-.939 1.704-1.928 3.508-1.928 3.755 0 4.448 2.47 4.448 5.684v6.543zM5.561 7.743a2.15 2.15 0 110-4.301 2.15 2.15 0 010 4.3zm-1.857 13.56h3.712V9.373H3.704v11.93zM23.15 0H1.844C.826 0 0 .807 0 1.803v21.393C0 24.192.826 25 1.844 25H23.15c1.02 0 1.85-.808 1.85-1.804V1.803C25 .807 24.17 0 23.15 0z" fill="#7F7F7F"/></svg>