<svg width="470" height="360" viewBox="0 0 470 360" fill="none" xmlns="http://www.w3.org/2000/svg">
<mask id="mask0" mask-type="alpha" maskUnits="userSpaceOnUse" x="0" y="0" width="470" height="360">
<rect width="470" height="360" fill="white"/>
</mask>
<g mask="url(#mask0)">
<path d="M276.954 54.145H327.294C328.447 54.145 329.391 55.0889 329.391 56.2425V303.746C329.391 304.91 328.447 305.844 327.294 305.844H142.715C141.551 305.844 140.617 304.91 140.617 303.746V56.2425C140.617 55.0889 141.551 54.145 142.715 54.145H193.054" stroke="black" stroke-width="2" stroke-linecap="round" stroke-linejoin="round"/>
<path d="M109.15 305.848V48.9061C109.15 34.4261 120.889 22.6875 135.369 22.6875H235" stroke="#B2B2B2" stroke-width="2" stroke-linecap="round" stroke-linejoin="round"/>
<path d="M360.849 54.1499V311.092C360.849 325.573 349.112 337.311 334.631 337.311H235" stroke="#B2B2B2" stroke-width="2" stroke-linecap="round" stroke-linejoin="round"/>
<path d="M276.955 64.6323H318.905V263.894L303.173 279.625L287.442 295.356H151.105V64.6323H193.055" stroke="#B2B2B2" stroke-width="2" stroke-linecap="round" stroke-linejoin="round"/>
<path fill-rule="evenodd" clip-rule="evenodd" d="M262.267 75.1249H207.732C205.415 75.1249 203.537 73.2477 203.537 70.93V47.8576C203.537 45.5409 205.415 43.6626 207.732 43.6626H262.267C264.585 43.6626 266.462 45.5409 266.462 47.8576V70.93C266.462 73.2477 264.585 75.1249 262.267 75.1249Z" stroke="black" stroke-width="2" stroke-linecap="round" stroke-linejoin="round"/>
<path d="M287.436 295.361V263.899H318.898" stroke="#B2B2B2" stroke-width="2" stroke-linecap="round" stroke-linejoin="round"/>
<path fill-rule="evenodd" clip-rule="evenodd" d="M276.948 143.293C276.948 120.124 258.167 101.343 234.999 101.343C211.831 101.343 193.049 120.124 193.049 143.293C193.049 166.46 211.831 185.242 234.999 185.242C258.167 185.242 276.948 166.46 276.948 143.293Z" stroke="#231F20" stroke-width="2" stroke-linecap="round" stroke-linejoin="round"/>
<path d="M254.639 134.871L231.072 158.438L215.361 142.726" stroke="#231F20" stroke-width="2" stroke-linecap="round" stroke-linejoin="round"/>
<path d="M193.049 206.216H276.948" stroke="#B2B2B2" stroke-width="2" stroke-linecap="round" stroke-linejoin="round"/>
<path d="M193.049 227.189H276.948" stroke="#B2B2B2" stroke-width="2" stroke-linecap="round" stroke-linejoin="round"/>
<path d="M193.049 248.163H276.948" stroke="#B2B2B2" stroke-width="2" stroke-linecap="round" stroke-linejoin="round"/>
<path d="M207.732 6.95654L235 22.6877" stroke="#B2B2B2" stroke-width="2" stroke-linecap="round" stroke-linejoin="round"/>
<path d="M235 337.311L262.267 353.042" stroke="#B2B2B2" stroke-width="2" stroke-linecap="round" stroke-linejoin="round"/>
</g>
</svg>
