<svg width="470" height="360" fill="none" xmlns="http://www.w3.org/2000/svg"><mask id="a" maskUnits="userSpaceOnUse" x="0" y="0" width="470" height="360"><path fill="#fff" d="M0 0h470v360H0z"/></mask><g mask="url(#a)" stroke-width="2" stroke-linecap="round" stroke-linejoin="round"><path d="M163.891 312.101C185.051 323.521 209.271 330 235 330c25.741 0 49.961-6.479 71.12-17.899M163.891 47.9C185.051 36.48 209.271 30 235 30c25.741 0 49.961 6.48 71.12 17.9M102.9 251.12C91.48 229.95 85 205.73 85 180c0-25.73 6.48-49.95 17.9-71.12M367.1 108.89c11.42 21.16 17.899 45.38 17.899 71.11 0 25.73-6.479 49.95-17.899 71.11" stroke="#231F20"/><path d="M258.131 296.74a117.705 117.705 0 0039.68-15.66M118.26 156.87c2.81-14.31 8.189-27.7 15.66-39.67M172.199 78.91a117.904 117.904 0 0139.67-15.65M118.26 203.13a117.678 117.678 0 0015.66 39.67M172.199 281.09a117.904 117.904 0 0039.67 15.65M258.131 63.26a117.684 117.684 0 0139.68 15.66M336.08 242.8a117.657 117.657 0 0015.66-39.67M336.08 117.2a117.665 117.665 0 0115.66 39.67" stroke="#B2B2B2"/><path d="M238.129 195.292h5.12c.36 0 .693-.192.874-.504l8.245-14.282a1.005 1.005 0 000-1.009l-8.245-14.282a1.01 1.01 0 00-.874-.504h-16.491c-.36 0-.693.192-.873.504l-8.246 14.282a1.01 1.01 0 000 1.009l8.246 14.282c.18.312.513.504.873.504h11.371M238.129 242.081h5.12c.36 0 .693-.192.874-.505l8.245-14.281a1.005 1.005 0 000-1.009l-8.245-14.282a1.009 1.009 0 00-.874-.504h-16.491c-.36 0-.693.191-.873.504l-8.246 14.282a1.01 1.01 0 000 1.009l8.246 14.281c.18.313.513.505.873.505h11.371M238.129 148.503h5.12c.36 0 .693-.192.874-.504l8.245-14.282a1.005 1.005 0 000-1.009l-8.245-14.282a1.01 1.01 0 00-.874-.504h-16.491c-.36 0-.693.192-.873.504l-8.246 14.282a1.01 1.01 0 000 1.009l8.246 14.282c.18.312.513.504.873.504h11.371M185.629 195.292h5.12c.36 0 .693-.192.874-.504l8.245-14.282a1.005 1.005 0 000-1.009l-8.245-14.282a1.01 1.01 0 00-.874-.504h-16.491c-.36 0-.693.192-.873.504l-8.246 14.282a1.01 1.01 0 000 1.009l8.246 14.282c.18.312.513.504.873.504h11.371M290.629 195.292h5.12c.36 0 .693-.192.874-.504l8.245-14.282a1.005 1.005 0 000-1.009l-8.245-14.282a1.01 1.01 0 00-.874-.504h-16.491c-.36 0-.693.192-.873.504l-8.246 14.282a1.01 1.01 0 000 1.009l8.246 14.282c.18.312.513.504.873.504h11.371" stroke="#1A1A1A"/><path d="M187.338 157.965a52.732 52.732 0 0122.6-24.103M260.072 226.148c9.877-5.388 17.848-13.853 22.59-24.104M260.072 133.862c9.877 5.377 17.848 13.842 22.59 24.103M187.338 202.045c4.752 10.251 12.723 18.716 22.6 24.104" stroke="#B2B2B2"/><path d="M381.589 265.35l-83.651-22.414 22.413 83.651M88.418 94.653l83.651 22.415-22.414-83.652M149.655 326.587l22.414-83.651-83.651 22.414M320.351 33.416l-22.413 83.652 83.651-22.415" stroke="#1A1A1A"/><path d="M255.004 311.322l-20-34.641-20 34.641M215.004 48.68l20 34.642 20-34.641M103.684 200.002l34.642-20-34.642-20M366.325 160.001l-34.641 20 34.641 20" stroke="#B2B2B2"/></g></svg>