<svg width="371" height="370" fill="none" xmlns="http://www.w3.org/2000/svg"><mask id="a" maskUnits="userSpaceOnUse" x="0" y="0" width="371" height="370"><path fill="#fff" d="M.5 0h370v370H.5z"/></mask><g opacity=".4" stroke-width="2" stroke-linecap="round" stroke-linejoin="round" mask="url(#a)"><path d="M108.599 270.116V98.034M263.584 301.53v7.77c0 6.436-5.241 11.653-11.707 11.653H119.2c-6.463 0-11.704-5.217-11.704-11.653v-7.77M263.583 99.885v170.571M107.496 67.785V60.7c0-6.436 5.241-11.654 11.707-11.654H251.88c6.463 0 11.704 5.218 11.704 11.654v8.455" stroke="#B2B2B2"/><path clip-rule="evenodd" d="M188.751 301.533a3.205 3.205 0 00-3.213-3.199 3.208 3.208 0 00-3.214 3.199 3.208 3.208 0 003.214 3.199 3.205 3.205 0 003.213-3.199z" stroke="#B2B2B2"/><path d="M130.907 285.994H84.082V239.38M84.082 130.618v-46.61h46.825M240.172 84.006h46.825v46.611M286.997 239.381v46.614h-46.825M185.54 153.011v63.978M217.674 185h-64.272" stroke="#1A1A1A"/></g></svg>