<svg width="371" height="370" viewBox="0 0 371 370" fill="none" xmlns="http://www.w3.org/2000/svg">
<mask id="mask0" mask-type="alpha" maskUnits="userSpaceOnUse" x="0" y="0" width="371" height="370">
<rect x="0.5" width="370" height="370" fill="white"/>
</mask>
<g mask="url(#mask0)">
<g opacity="0.4">
<path d="M108.599 270.116V98.0342" stroke="#B2B2B2" stroke-width="2" stroke-linecap="round" stroke-linejoin="round"/>
<path d="M263.584 301.53V309.3C263.584 315.736 258.343 320.953 251.877 320.953H119.2C112.737 320.953 107.496 315.736 107.496 309.3V301.53" stroke="#B2B2B2" stroke-width="2" stroke-linecap="round" stroke-linejoin="round"/>
<path d="M263.583 99.8848V270.456" stroke="#B2B2B2" stroke-width="2" stroke-linecap="round" stroke-linejoin="round"/>
<path d="M107.496 67.7855V60.7C107.496 54.2638 112.737 49.0464 119.203 49.0464H251.88C258.343 49.0464 263.584 54.2638 263.584 60.7V69.1547" stroke="#B2B2B2" stroke-width="2" stroke-linecap="round" stroke-linejoin="round"/>
<path fill-rule="evenodd" clip-rule="evenodd" d="M188.751 301.533C188.751 299.767 187.315 298.334 185.538 298.334C183.764 298.334 182.324 299.767 182.324 301.533C182.324 303.299 183.764 304.732 185.538 304.732C187.315 304.732 188.751 303.299 188.751 301.533Z" stroke="#B2B2B2" stroke-width="2" stroke-linecap="round" stroke-linejoin="round"/>
<path d="M130.907 285.994H84.082V239.38" stroke="#1A1A1A" stroke-width="2" stroke-linecap="round" stroke-linejoin="round"/>
<path d="M84.082 130.618V84.0073H130.907" stroke="#1A1A1A" stroke-width="2" stroke-linecap="round" stroke-linejoin="round"/>
<path d="M240.172 84.0063H286.997V130.617" stroke="#1A1A1A" stroke-width="2" stroke-linecap="round" stroke-linejoin="round"/>
<path d="M286.997 239.381V285.995H240.172" stroke="#1A1A1A" stroke-width="2" stroke-linecap="round" stroke-linejoin="round"/>
<path d="M185.54 153.011V216.989" stroke="#1A1A1A" stroke-width="2" stroke-linecap="round" stroke-linejoin="round"/>
<path d="M217.674 185H153.402" stroke="#1A1A1A" stroke-width="2" stroke-linecap="round" stroke-linejoin="round"/>
</g>
</g>
</svg>
