<svg width="371" height="370" fill="none" xmlns="http://www.w3.org/2000/svg"><mask id="a" maskUnits="userSpaceOnUse" x="0" y="0" width="371" height="370"><path fill="#fff" d="M.5 0h370v370H.5z"/></mask><g opacity=".401" stroke-width="2" stroke-linecap="round" stroke-linejoin="round" mask="url(#a)"><path d="M96.496 206.743v44.289M170.17 257.845l-57.916-57.916M252.785 273.602h-44.289M201.684 111.351l57.916 57.916M119.066 95.594h44.289M274.504 206.743v44.289" stroke="#B2B2B2"/><path clip-rule="evenodd" d="M118.585 95.338c0 12.324-9.996 22.315-22.33 22.315-12.331 0-22.33-9.991-22.33-22.315 0-12.323 9.999-22.315 22.33-22.315 12.334 0 22.33 9.992 22.33 22.315zM207.901 95.338c0 12.324-9.995 22.315-22.329 22.315-12.332 0-22.33-9.991-22.33-22.315 0-12.323 9.998-22.315 22.33-22.315 12.334 0 22.329 9.992 22.329 22.315zM297.217 95.338c0 12.324-9.995 22.315-22.329 22.315-12.331 0-22.329-9.991-22.329-22.315 0-12.323 9.998-22.315 22.329-22.315 12.334 0 22.329 9.992 22.329 22.315zM118.585 184.598c0 12.323-9.996 22.315-22.33 22.315-12.331 0-22.33-9.992-22.33-22.315s9.999-22.315 22.33-22.315c12.334 0 22.33 9.992 22.33 22.315zM207.901 184.598c0 12.323-9.995 22.315-22.329 22.315-12.332 0-22.33-9.992-22.33-22.315s9.998-22.315 22.33-22.315c12.334 0 22.329 9.992 22.329 22.315zM297.217 184.598c0 12.323-9.995 22.315-22.329 22.315-12.331 0-22.329-9.992-22.329-22.315s9.998-22.315 22.329-22.315c12.334 0 22.329 9.992 22.329 22.315zM118.585 273.857c0 12.324-9.996 22.315-22.33 22.315-12.331 0-22.33-9.991-22.33-22.315 0-12.323 9.999-22.315 22.33-22.315 12.334 0 22.33 9.992 22.33 22.315zM207.901 273.857c0 12.324-9.995 22.315-22.329 22.315-12.332 0-22.33-9.991-22.33-22.315 0-12.323 9.998-22.315 22.33-22.315 12.334 0 22.329 9.992 22.329 22.315zM297.217 273.857c0 12.324-9.995 22.315-22.329 22.315-12.331 0-22.329-9.991-22.329-22.315 0-12.323 9.998-22.315 22.329-22.315 12.334 0 22.329 9.992 22.329 22.315z" stroke="#1A1A1A"/></g></svg>