<svg width="30" height="24" fill="none" xmlns="http://www.w3.org/2000/svg"><path fill-rule="evenodd" clip-rule="evenodd" d="M9.227 23.125c11.085 0 17.15-8.9 17.15-16.604 0-.25 0-.5-.011-.751a12.07 12.07 0 003.009-3.027 12.53 12.53 0 01-3.468.921A5.91 5.91 0 0028.564.432a12.232 12.232 0 01-3.832 1.412A6.11 6.11 0 0020.336 0c-3.327 0-6.03 2.618-6.03 5.838 0 .455.058.9.152 1.332-5.007-.24-9.45-2.572-12.424-6.1a5.695 5.695 0 00-.812 2.936c0 2.026 1.07 3.812 2.68 4.86a6.25 6.25 0 01-2.727-.729v.08c0 2.822 2.081 5.19 4.832 5.724a6.057 6.057 0 01-1.587.205c-.388 0-.764-.034-1.129-.103.764 2.322 2.998 4.006 5.63 4.052a12.344 12.344 0 01-7.487 2.504c-.482 0-.964-.023-1.434-.08a17.559 17.559 0 009.227 2.606z" fill="#7F7F7F"/></svg>