<svg width="32" height="24" fill="none" xmlns="http://www.w3.org/2000/svg"><mask id="a" maskUnits="userSpaceOnUse" x="0" y="0" width="32" height="24"><path fill-rule="evenodd" clip-rule="evenodd" d="M0 .7h31.875v22.5H0V.7z" fill="#fff"/></mask><g mask="url(#a)"><path fill-rule="evenodd" clip-rule="evenodd" d="M12.678 16.698V7.2l8.33 4.748-8.33 4.749zm18.53-12.485a4.009 4.009 0 00-2.817-2.842C25.905.699 15.938.699 15.938.699S5.97.7 3.483 1.371A4.009 4.009 0 00.666 4.213C0 6.719 0 11.949 0 11.949s0 5.23.666 7.737a4.01 4.01 0 002.818 2.842c2.486.671 12.454.671 12.454.671s9.967 0 12.453-.671a4.01 4.01 0 002.818-2.842c.666-2.507.666-7.737.666-7.737s0-5.23-.666-7.736z" fill="#7F7F7F"/></g></svg>